<?xml version="1.0" standalone="no"?>
<!DOCTYPE svg PUBLIC "-//W3C//DTD SVG 20010904//EN"
 "http://www.w3.org/TR/2001/REC-SVG-20010904/DTD/svg10.dtd">
<svg version="1.0" xmlns="http://www.w3.org/2000/svg"
 width="100.000000pt" height="100.000000pt" viewBox="0 0 100.000000 100.000000"
 preserveAspectRatio="xMidYMid meet">
<metadata>
Created by potrace 1.14, written by Peter Selinger 2001-2017
</metadata>
<g transform="translate(0.000000,100.000000) scale(0.100000,-0.100000)"
fill="#000000" stroke="none">
<path d="M619 893 c-50 -54 -69 -86 -69 -113 0 -23 -8 -32 -42 -48 -24 -11
-65 -20 -92 -21 -117 -1 -156 -37 -191 -177 -14 -54 -25 -105 -25 -113 0 -7
-16 -54 -36 -102 -21 -54 -33 -97 -29 -109 10 -31 55 -80 73 -80 9 0 48 15 87
34 44 22 110 42 178 56 210 41 226 56 243 235 7 82 17 105 45 105 11 0 30 5
42 12 36 19 97 91 97 114 0 44 -128 186 -197 219 -43 21 -56 19 -84 -12z m230
-239 c-13 -14 -37 -35 -54 -46 -18 -13 -10 -2 20 28 52 51 77 64 34 18z m-119
-58 c0 -2 -8 -10 -17 -17 -16 -13 -17 -12 -4 4 13 16 21 21 21 13z m-80 -282
c-8 -8 -23 -20 -34 -25 -13 -7 -9 -1 9 15 34 29 43 33 25 10z m-73 -40 c-3 -3
-12 -4 -19 -1 -8 3 -5 6 6 6 11 1 17 -2 13 -5z m-40 -10 c-3 -3 -12 -4 -19 -1
-8 3 -5 6 6 6 11 1 17 -2 13 -5z m-40 -10 c-3 -3 -12 -4 -19 -1 -8 3 -5 6 6 6
11 1 17 -2 13 -5z m-190 -53 c-33 -16 -64 -34 -70 -40 -6 -6 -18 -11 -26 -11
-19 0 39 38 94 62 64 27 65 20 2 -11z"/>
</g>
</svg>
